<svg width="21" height="20" viewBox="0 0 21 20" fill="none" xmlns="http://www.w3.org/2000/svg">
<path fill-rule="evenodd" clip-rule="evenodd" d="M7.6498 14.75L10.7498 17.85L13.8498 14.75H16.0998C18.374 14.75 20.2736 16.2953 20.7563 18.4795L20.7998 18.7L20.9998 19.75H0.549805L0.699805 18.7C1.0869 16.4742 2.92561 14.8571 5.17367 14.7551L5.39981 14.75H7.6498ZM10.7498 0.25C14.2498 0.25 16.7498 2.75 16.7498 6.25C16.7498 9.65 14.3498 13.25 10.7498 13.25C7.1498 13.25 4.7498 9.65 4.7498 6.25C4.7498 2.75 7.2498 0.25 10.7498 0.25ZM10.7498 1.75C8.1498 1.75 6.2498 3.65 6.2498 6.25C6.2498 8.9 8.0498 11.75 10.7498 11.75C13.4498 11.75 15.2498 8.9 15.2498 6.25C15.2498 3.65 13.3498 1.75 10.7498 1.75Z" fill="white"/>
</svg>
