<svg width="21" height="23" viewBox="0 0 21 23" fill="none" xmlns="http://www.w3.org/2000/svg">
<path fill-rule="evenodd" clip-rule="evenodd" d="M12.75 3H7.75V1.5H12.75V3ZM6.75 7.25C6.35 7.25 6 7.6 6 8V18C6 18.4 6.35 18.75 6.75 18.75C7.15 18.75 7.5 18.4 7.5 18V8C7.5 7.6 7.15 7.25 6.75 7.25ZM13.75 7.25C13.35 7.25 13 7.6 13 8V18C13 18.4 13.35 18.75 13.75 18.75C14.15 18.75 14.5 18.4 14.5 18V8C14.5 7.6 14.15 7.25 13.75 7.25ZM10.25 7.25C9.85 7.25 9.5 7.6 9.5 8V18C9.5 18.4 9.85 18.75 10.25 18.75C10.65 18.75 11 18.4 11 18V8C11 7.6 10.65 7.25 10.25 7.25ZM16.35 20.1C16.3 20.9 15.65 21.5 14.85 21.5H5.65C4.85 21.5 4.2 20.9 4.15 20.1L3.3 4.5H17.2L16.35 20.1ZM6.25 0V3H0.75C0.35 3 0 3.35 0 3.75C0 4.15 0.35 4.5 0.75 4.5H1.8L2.65 20.15C2.75 21.75 4.05 23 5.65 23H14.9C16.5 23 17.8 21.75 17.9 20.15L18.7 4.5H19.75C20.15 4.5 20.5 4.15 20.5 3.75C20.5 3.35 20.15 3 19.75 3H14.25V0H6.25Z" fill="#E20074"/>
</svg>
