<svg width="25" height="25" viewBox="0 0 25 25" fill="none" xmlns="http://www.w3.org/2000/svg">
<path fill-rule="evenodd" clip-rule="evenodd" d="M13.468 12.919L18.1243 8.26276C18.4295 7.95755 18.4295 7.4638 18.1243 7.15859C17.819 6.85339 17.3243 6.85339 17.019 7.15859L12.3628 11.8138L7.70758 7.15859C7.40238 6.85339 6.90758 6.85339 6.60342 7.15859C6.29821 7.4638 6.29821 7.95755 6.60342 8.26276L11.2586 12.919L6.60342 17.5742C6.29821 17.8794 6.29821 18.3742 6.60342 18.6794C6.7555 18.8326 6.9555 18.9086 7.15446 18.9086C7.3555 18.9086 7.5555 18.8326 7.70758 18.6805L12.3628 14.0242L17.019 18.6794C17.1722 18.8326 17.3722 18.9086 17.5711 18.9086C17.7722 18.9086 17.9722 18.8326 18.1243 18.6805C18.4295 18.3753 18.4295 17.8805 18.1243 17.5753L13.468 12.919Z" fill="#E20074"/>
</svg>
