<svg width="29" height="41" viewBox="0 0 29 41" fill="none" xmlns="http://www.w3.org/2000/svg">
<path fill-rule="evenodd" clip-rule="evenodd" d="M2.9502 12.4496L4.0002 13.4996L14.5002 2.99961L25.0002 13.4996L26.0502 12.4496L14.5002 0.849609L2.9502 12.4496ZM21.5002 18.9996C21.5002 19.8496 20.8502 20.4996 20.0002 20.4996H15.2502V16.7496C15.2502 16.3496 14.9002 15.9996 14.5002 15.9996C14.1002 15.9996 13.7502 16.3496 13.7502 16.7496V20.4996H9.0002C8.1502 20.4996 7.5002 19.8496 7.5002 18.9996V12.0996L6.0002 13.5996V18.9996C6.0002 20.6496 7.3502 21.9996 9.0002 21.9996H20.0002C21.6502 21.9996 23.0002 20.6496 23.0002 18.9996V13.5996L21.5002 12.0996V18.9996Z" fill="#E20074"/>
<path d="M5.59253 35.32H2.28053V31.984H1.00853V40H2.28053V36.508H5.59253V40H6.86453V31.984H5.59253V35.32ZM10.6565 40.168C12.2525 40.168 13.2245 38.98 13.2245 37.132C13.2245 35.284 12.2525 34.108 10.6565 34.108C9.06053 34.108 8.08853 35.284 8.08853 37.132C8.08853 38.98 9.06053 40.168 10.6565 40.168ZM10.6565 39.04C9.76853 39.04 9.33653 38.356 9.33653 37.132C9.33653 35.92 9.76853 35.224 10.6565 35.224C11.5445 35.224 11.9765 35.92 11.9765 37.132C11.9765 38.356 11.5445 39.04 10.6565 39.04ZM20.568 34.108C19.824 34.108 19.188 34.432 18.876 35.08H18.804C18.564 34.468 18.048 34.108 17.232 34.108C16.524 34.108 15.948 34.432 15.648 35.032H15.576V34.276H14.436V40H15.648V36.724C15.648 35.812 16.092 35.224 16.836 35.224C17.532 35.224 17.772 35.68 17.772 36.34V40H18.996V36.724C18.996 35.752 19.428 35.224 20.184 35.224C20.868 35.224 21.12 35.68 21.12 36.34V40H22.344V36.208C22.344 34.876 21.792 34.108 20.568 34.108ZM28.407 37C28.407 35.224 27.459 34.108 25.995 34.108C24.447 34.108 23.499 35.236 23.499 37.132C23.499 39.064 24.483 40.168 25.983 40.168C27.183 40.168 28.071 39.52 28.347 38.44H27.087C26.907 38.884 26.535 39.124 25.983 39.124C25.239 39.124 24.735 38.656 24.675 37.42H28.395C28.407 37.312 28.407 37.156 28.407 37ZM25.995 35.164C26.667 35.164 27.147 35.548 27.243 36.484H24.699C24.843 35.548 25.299 35.164 25.995 35.164Z" fill="#E20074"/>
</svg>
