<svg width="23" height="22" viewBox="0 0 23 22" fill="none" xmlns="http://www.w3.org/2000/svg">
<path fill-rule="evenodd" clip-rule="evenodd" d="M7.81 15.95L11.22 19.36L14.63 15.95H17.105C19.6066 15.95 21.6962 17.6498 22.2271 20.0524L22.275 20.295L22.495 21.45H0L0.165 20.295C0.590806 17.8466 2.61339 16.0678 5.08625 15.9556L5.335 15.95H7.81ZM11.22 0C15.07 0 17.82 2.75 17.82 6.6C17.82 10.34 15.18 14.3 11.22 14.3C7.26 14.3 4.62 10.34 4.62 6.6C4.62 2.75 7.37 0 11.22 0ZM11.22 1.65C8.36 1.65 6.27 3.74 6.27 6.6C6.27 9.515 8.25 12.65 11.22 12.65C14.19 12.65 16.17 9.515 16.17 6.6C16.17 3.74 14.08 1.65 11.22 1.65Z" fill="white"/>
</svg>
