<svg width="40" height="42" viewBox="0 0 40 42" fill="none" xmlns="http://www.w3.org/2000/svg">
<path fill-rule="evenodd" clip-rule="evenodd" d="M10.5575 6L12.5 7.9425L17.4425 3L18.5 4.0575L12.5 10.0575L9.5 7.0575L10.5575 6ZM20 6H30.5V7.5H20V6ZM30.5 16.5H20V18H30.5V16.5ZM10.5575 16.5L12.5 18.4425L17.4425 13.5L18.5 14.5575L12.5 20.5575L9.5 17.5575L10.5575 16.5Z" fill="#E20074"/>
<path d="M2.37233 41V32.984H1.10033V41H2.37233ZM6.74173 35.108C6.03373 35.108 5.45773 35.432 5.15773 36.032H5.08573V35.276H3.94573V41H5.15773V37.724C5.15773 36.812 5.60173 36.224 6.34573 36.224C7.04173 36.224 7.28173 36.68 7.28173 37.34V41H8.50573V37.208C8.50573 35.876 7.95373 35.108 6.74173 35.108ZM11.9394 39.272H11.8674L10.6074 35.276H9.29942L11.2554 41H12.5394L14.5074 35.276H13.1874L11.9394 39.272ZM17.5569 41.168C19.1529 41.168 20.1249 39.98 20.1249 38.132C20.1249 36.284 19.1529 35.108 17.5569 35.108C15.9609 35.108 14.9889 36.284 14.9889 38.132C14.9889 39.98 15.9609 41.168 17.5569 41.168ZM17.5569 40.04C16.6689 40.04 16.2369 39.356 16.2369 38.132C16.2369 36.92 16.6689 36.224 17.5569 36.224C18.4449 36.224 18.8769 36.92 18.8769 38.132C18.8769 39.356 18.4449 40.04 17.5569 40.04ZM22.5484 34.28V32.984H21.3364V34.28H22.5484ZM22.5484 41V35.276H21.3364V41H22.5484ZM23.7548 38.132C23.7548 39.992 24.6908 41.168 26.2628 41.168C27.5948 41.168 28.4348 40.34 28.6028 39.116L27.3548 39.128C27.2348 39.716 26.8628 40.04 26.2628 40.04C25.4228 40.04 24.9908 39.356 24.9908 38.132C24.9908 36.908 25.4228 36.224 26.2628 36.224C26.8628 36.224 27.2348 36.56 27.3548 37.16H28.6028C28.4348 35.948 27.5948 35.108 26.2628 35.108C24.6908 35.108 23.7548 36.284 23.7548 38.132ZM34.3113 38C34.3113 36.224 33.3633 35.108 31.8993 35.108C30.3513 35.108 29.4033 36.236 29.4033 38.132C29.4033 40.064 30.3873 41.168 31.8873 41.168C33.0873 41.168 33.9753 40.52 34.2513 39.44H32.9913C32.8113 39.884 32.4393 40.124 31.8873 40.124C31.1433 40.124 30.6393 39.656 30.5793 38.42H34.2993C34.3113 38.312 34.3113 38.156 34.3113 38ZM31.8993 36.164C32.5713 36.164 33.0513 36.548 33.1473 37.484H30.6033C30.7473 36.548 31.2033 36.164 31.8993 36.164ZM37.2798 41.168C38.5158 41.168 39.3438 40.46 39.3438 39.392C39.3438 38.48 38.7918 37.94 37.8678 37.7L37.1238 37.52C36.6918 37.4 36.4638 37.196 36.4638 36.824C36.4638 36.416 36.7878 36.104 37.2918 36.104C37.7598 36.104 38.0718 36.368 38.1438 36.872H39.3198C39.1998 35.792 38.4318 35.12 37.2918 35.12C36.0558 35.12 35.2758 35.888 35.2758 36.836C35.2758 37.808 35.8038 38.288 36.6198 38.504L37.3638 38.708C37.7838 38.828 38.1438 38.984 38.1438 39.464C38.1438 39.896 37.7958 40.172 37.2798 40.172C36.7398 40.172 36.4158 39.92 36.3198 39.452L35.1678 39.44C35.2878 40.52 36.0318 41.168 37.2798 41.168Z" fill="#E20074"/>
</svg>
