<svg width="49" height="49" viewBox="0 0 49 49" fill="none" xmlns="http://www.w3.org/2000/svg">
<path fill-rule="evenodd" clip-rule="evenodd" d="M41.65 17.5004C40.75 14.9004 39.15 12.7004 37.15 11.0004C34.45 8.70039 31.05 7.40039 27.25 7.40039C23.75 7.40039 20.35 8.60039 17.65 10.8004C16.95 10.6004 16.15 10.5004 15.45 10.5004C10.65 10.5004 6.65 14.1004 6.15 18.8004C2.85 20.6004 0.75 24.0004 0.75 27.8004C0.75 31.2004 2.35 34.1004 4.85 36.0004C6.85 37.5004 9.25 38.2004 11.55 38.0004C14.75 40.6004 18.75 42.0004 22.85 42.0004C26.65 42.0004 30.15 40.9004 33.25 38.7004C34.25 39.0004 35.25 39.1004 36.25 39.1004C42.55 39.1004 47.75 33.9004 47.75 27.6004C47.75 23.4004 45.35 19.4004 41.65 17.5004ZM36.25 36.1004C34.45 36.1004 33.15 35.5004 32.65 35.3004C32.05 35.7004 30.05 37.8004 25.75 38.7004V30.0004H32.35L24.25 20.0004L16.15 30.0004H22.75V39.0004C21.05 39.0004 19.45 38.7004 17.85 38.1004C14.75 37.0004 12.75 35.0004 12.55 34.8004C11.35 34.9004 8.65 35.4004 6.05 33.0004C4.65 31.7004 3.65 29.8004 3.65 27.7004C3.65 22.2004 8.85 20.7004 8.95 20.6004C9.05 20.2004 8.55 17.3004 11.15 15.0004C13.05 13.4004 15.65 12.9004 18.25 14.0004C21.35 10.9004 24.95 10.2004 27.15 10.2004C30.15 10.2004 32.85 11.2004 35.05 13.0004C38.05 15.5004 38.85 18.7004 39.05 19.4004C39.05 19.4004 44.65 21.4004 44.65 27.4004C44.75 32.3004 40.95 36.1004 36.25 36.1004Z" fill="#E20074"/>
</svg>
